<svg xmlns="http://www.w3.org/2000/svg" width="20" height="20" fill="currentColor" viewBox="0 0 20 20"><path d="M5.437 7.416c0-.364.027-.723.08-1.073a5.818 5.818 0 1 0 8.139 8.14 7.148 7.148 0 0 1-8.219-7.066ZM13.502 10a3.502 3.502 0 0 0-3.321-3.497L10 6.498l-.135-.013A.665.665 0 0 1 10 5.168l.25.006A4.833 4.833 0 0 1 14.831 10a.666.666 0 0 1-1.33 0Zm4.835-1.46a.666.666 0 0 1 .23 1.311l-1.16.204-.134.01a.665.665 0 0 1-.096-1.32l1.16-.205Zm-2.866-3.07a.665.665 0 0 1-.94-.94l.94.94Zm-.107-1.773a.665.665 0 1 1 .94.94l-.833.833L15 5l-.47-.47.833-.833Zm-4.11-.872a.665.665 0 0 1-1.31-.232l1.31.232ZM10.919.893a.665.665 0 0 1 .54.77l-.205 1.162-.655-.117-.655-.115.205-1.16.037-.13a.665.665 0 0 1 .733-.41ZM6.767 7.416a5.818 5.818 0 0 0 7.985 5.4.666.666 0 0 1 .896.771l-.03.094a7.148 7.148 0 1 1-9.299-9.298.666.666 0 0 1 .865.865 5.802 5.802 0 0 0-.417 2.168Z"></path></svg>
