<svg xmlns="http://www.w3.org/2000/svg" width="66" height="24" fill="currentColor" viewBox="0 0 66 24"><path d="M29.323 10.672a1.25 1.25 0 1 1 0 2.5 1.25 1.25 0 0 1 0-2.5Zm3.965 0a1.25 1.25 0 1 1 0 2.5 1.25 1.25 0 0 1 0-2.5Zm3.965 0a1.25 1.25 0 1 1 0 2.5 1.25 1.25 0 0 1 0-2.5Z" opacity="0.4"></path><path d="M23.576 16.715H5.009v.805c0 .45.365.814.815.814H22.76c.45 0 .814-.365.815-.814v-.805Zm2 .805a2.815 2.815 0 0 1-2.815 2.814H5.824a2.815 2.815 0 0 1-2.815-2.814v-1.2c0-.887.719-1.605 1.605-1.605H23.97c.886 0 1.606.718 1.606 1.604v1.2Z"></path><path d="M22.293 15.715v-9.5a1 1 0 0 0-1-1h-14a1 1 0 0 0-1 1v9.5a1 1 0 1 1-2 0v-9.5a3 3 0 0 1 3-3h14a3 3 0 0 1 3 3v9.5a1 1 0 1 1-2 0Zm26.148-7.341a1.22 1.22 0 1 1-2.44 0 1.22 1.22 0 0 1 2.44 0Zm0 7.25a1.22 1.22 0 1 1-2.44 0 1.22 1.22 0 0 1 2.44 0Z"></path><path d="M61.036 6.75c0-.524-.446-1-1.063-1H45.02c-.616 0-1.062.476-1.062 1V11h17.078V6.75Zm2 6.25H41.958V6.75c0-1.686 1.4-3 3.062-3h14.953c1.663 0 3.063 1.314 3.063 3V13Z"></path><path d="M61.036 13H43.958v4.25c0 .523.446 1 1.062 1h14.953c.617 0 1.063-.477 1.063-1V13Zm2 4.25c0 1.685-1.4 3-3.063 3H45.02c-1.662 0-3.062-1.315-3.062-3V11h21.078v6.25Z"></path></svg>
